<?xml version="1.0" standalone="no"?>
<!DOCTYPE svg PUBLIC "-//W3C//DTD SVG 20010904//EN"
 "http://www.w3.org/TR/2001/REC-SVG-20010904/DTD/svg10.dtd">
<svg version="1.0" xmlns="http://www.w3.org/2000/svg"
 width="750.000000pt" height="815.000000pt" viewBox="0 0 750.000000 815.000000"
 preserveAspectRatio="xMidYMid meet">

<g transform="translate(0.000000,815.000000) scale(0.100000,-0.100000)"
fill="#000000" stroke="none">
<path d="M0 4075 l0 -4075 3750 0 3750 0 0 4075 0 4075 -3750 0 -3750 0 0
-4075z m6115 -2242 c-6 -16 -2671 -19 -2860 -3 -488 41 -947 182 -1300 398
-27 17 -70 43 -95 58 -149 90 -343 267 -458 416 -185 241 -318 543 -377 854
-23 125 -44 298 -36 306 5 6 789 24 1351 30 l235 3 9 -30 c58 -182 125 -317
208 -419 142 -175 345 -305 566 -363 128 -34 352 -38 477 -9 331 76 587 280
731 581 69 145 94 247 101 410 15 369 -150 697 -462 916 -116 81 -298 151
-438 169 -351 44 -658 -61 -907 -310 -124 -123 -240 -333 -274 -495 -8 -36
-15 -68 -17 -69 -2 -2 -308 -9 -679 -15 -371 -6 -728 -14 -792 -17 -95 -5
-118 -3 -119 8 -7 108 42 404 93 557 11 36 37 104 56 151 292 722 1041 1295
1882 1439 206 36 280 42 620 51 184 5 389 14 455 20 128 12 444 53 535 71 118
22 379 82 460 106 393 113 717 352 955 703 31 47 62 91 69 99 8 11 12 -700 14
-2795 1 -1545 0 -2815 -3 -2821z"/>
</g>
</svg>
